<svg height="3086" width="720" xmlns="http://www.w3.org/2000/svg">
<rect height="3086" fill="#555" width="720"></rect>
<text fill="#7f7" font-family="Courier New" font-size="12" xml:space="preserve">
<tspan x="10" y="26">2019-08-21 05:29:23 -0500</tspan>

<tspan x="10" y="42">build.app</tspan>

<tspan x="10" y="58"></tspan>

<tspan x="10" y="74">2019-08-21 03:42:29 -0500</tspan>

<tspan x="10" y="90">build.app</tspan>

<tspan x="10" y="106"></tspan>

<tspan x="10" y="122">2019-08-21 08:21:05 +0000</tspan>

<tspan x="10" y="138">array.from</tspan>

<tspan x="10" y="154"></tspan>

<tspan x="10" y="170">2019-08-21 03:11:09 -0500</tspan>

<tspan x="10" y="186">- fix demo</tspan>

<tspan x="10" y="202"></tspan>

<tspan x="10" y="218">2019-08-21 03:10:13 -0500</tspan>

<tspan x="10" y="234">- fix demo</tspan>

<tspan x="10" y="250"></tspan>

<tspan x="10" y="266">2019-08-21 02:12:25 -0500</tspan>

<tspan x="10" y="282">update.build</tspan>

<tspan x="10" y="298"></tspan>

<tspan x="10" y="314">2019-08-14 07:49:52 +0000</tspan>

<tspan x="10" y="330">update.build</tspan>

<tspan x="10" y="346"></tspan>

<tspan x="10" y="362">2019-08-11 03:07:26 -0500</tspan>

<tspan x="10" y="378">update.build</tspan>

<tspan x="10" y="394"></tspan>

<tspan x="10" y="410">2019-08-11 03:02:52 -0500</tspan>

<tspan x="10" y="426">update.build</tspan>

<tspan x="10" y="442"></tspan>

<tspan x="10" y="458">2019-08-11 07:59:18 +0000</tspan>

<tspan x="10" y="474">update.build</tspan>

<tspan x="10" y="490"></tspan>

<tspan x="10" y="506">2019-08-04 05:06:42 -0500</tspan>

<tspan x="10" y="522">- rename var request to req, and response to res</tspan>

<tspan x="10" y="538"></tspan>

<tspan x="10" y="554">2019-08-04 03:59:57 -0500</tspan>

<tspan x="10" y="570">- disable travis-ci cache</tspan>

<tspan x="10" y="586"></tspan>

<tspan x="10" y="602">2019-08-04 08:39:46 +0000</tspan>

<tspan x="10" y="618">- rename var error to err</tspan>

<tspan x="10" y="634"></tspan>

<tspan x="10" y="650">2019-08-04 08:11:18 +0000</tspan>

<tspan x="10" y="666">- rename var local.errorDefault to local.errDefault</tspan>

<tspan x="10" y="682"></tspan>

<tspan x="10" y="698">2019-08-04 01:46:58 -0500</tspan>

<tspan x="10" y="714">- rename var error to err</tspan>

<tspan x="10" y="730"></tspan>

<tspan x="10" y="746">2019-08-04 01:28:50 -0500</tspan>

<tspan x="10" y="762">update.build</tspan>

<tspan x="10" y="778"></tspan>

<tspan x="10" y="794">2019-08-04 01:26:35 -0500</tspan>

<tspan x="10" y="810">update.build</tspan>

<tspan x="10" y="826"></tspan>

<tspan x="10" y="842">2019-02-05 23:39:58 -0600</tspan>

<tspan x="10" y="858">- replace circurlarList with circularSet</tspan>

<tspan x="10" y="874"></tspan>

<tspan x="10" y="890">2019-02-05 23:36:02 -0600</tspan>

<tspan x="10" y="906">build.update</tspan>

<tspan x="10" y="922"></tspan>

<tspan x="10" y="938">2019-02-05 01:11:55 -0600</tspan>

<tspan x="10" y="954">build.update</tspan>

<tspan x="10" y="970"></tspan>

<tspan x="10" y="986">2019-02-05 01:08:34 -0600</tspan>

<tspan x="10" y="1002">build.update</tspan>

<tspan x="10" y="1018"></tspan>

<tspan x="10" y="1034">2019-01-07 00:06:19 -0600</tspan>

<tspan x="10" y="1050">click.buttonEval1</tspan>

<tspan x="10" y="1066"></tspan>

<tspan x="10" y="1082">2019-01-06 23:56:47 -0600</tspan>

<tspan x="10" y="1098">- revamp ui event-handling with window.domOnEventDelegateDict</tspan>

<tspan x="10" y="1114"></tspan>

<tspan x="10" y="1130">2019-01-04 19:45:38 -0600</tspan>

<tspan x="10" y="1146">update.build</tspan>

<tspan x="10" y="1162"></tspan>

<tspan x="10" y="1178">2018-12-31 02:09:06 -0600</tspan>

<tspan x="10" y="1194">fix.ui.import.data</tspan>

<tspan x="10" y="1210"></tspan>

<tspan x="10" y="1226">2018-12-31 02:03:42 -0600</tspan>

<tspan x="10" y="1242">fix.ui.import.data</tspan>

<tspan x="10" y="1258"></tspan>

<tspan x="10" y="1274">2018-12-31 01:02:23 -0600</tspan>

<tspan x="10" y="1290">globalThis.domOnEventDelegateDict.testRunBrowser</tspan>

<tspan x="10" y="1306"></tspan>

<tspan x="10" y="1322">2018-12-31 00:50:06 -0600</tspan>

<tspan x="10" y="1338">onEventDomDb</tspan>

<tspan x="10" y="1354"></tspan>

<tspan x="10" y="1370">2018-12-30 23:39:32 -0600</tspan>

<tspan x="10" y="1386">onevent-reset-output</tspan>

<tspan x="10" y="1402"></tspan>

<tspan x="10" y="1418">2018-12-30 22:55:36 -0600</tspan>

<tspan x="10" y="1434">- revamp ui event-handling with window.domOnEventDelegateDict</tspan>

<tspan x="10" y="1450"></tspan>

<tspan x="10" y="1466">2018-12-30 22:14:50 -0600</tspan>

<tspan x="10" y="1482">- revamp ui event-handling with window.domOnEventDelegateDict</tspan>

<tspan x="10" y="1498"></tspan>

<tspan x="10" y="1514">2018-12-30 17:56:05 -0600</tspan>

<tspan x="10" y="1530">[build clean]</tspan>

<tspan x="10" y="1546"></tspan>

<tspan x="10" y="1562">2018-12-30 00:26:18 -0600</tspan>

<tspan x="10" y="1578">[npm publish] - npm publish 2018.12.30</tspan>

<tspan x="10" y="1594">- fix ui buttons</tspan>

<tspan x="10" y="1610">- update build</tspan>

<tspan x="10" y="1626"></tspan>

<tspan x="10" y="1642">2018-12-29 18:03:55 -0600</tspan>

<tspan x="10" y="1658">[npm publish] - npm publish 2018.12.29</tspan>

<tspan x="10" y="1674">- refactor files with new jslint (v2018.11.14)</tspan>

<tspan x="10" y="1690">- update build</tspan>

<tspan x="10" y="1706"></tspan>

<tspan x="10" y="1722">2018-09-01 08:18:04 +0700</tspan>

<tspan x="10" y="1738">[npm publish] - npm publish 2018.9.1</tspan>

<tspan x="10" y="1754">- revamp bootstrap-mechanism before running tests</tspan>

<tspan x="10" y="1770">- integrate function db.onEventDomDb with utility2_onReadyBefore</tspan>

<tspan x="10" y="1786">- add functions dbReset, dbSeed</tspan>

<tspan x="10" y="1802"></tspan>

<tspan x="10" y="1818">2018-08-06 02:21:32 +0700</tspan>

<tspan x="10" y="1834">[npm publish] - npm publish 2018.8.5</tspan>

<tspan x="10" y="1850">- migrate from modeJs -&gt; isBrowser</tspan>

<tspan x="10" y="1866">- update build</tspan>

<tspan x="10" y="1882">- none</tspan>

<tspan x="10" y="1898"></tspan>

<tspan x="10" y="1914">2018-04-22 16:49:56 +0800</tspan>

<tspan x="10" y="1930">[npm publish] - npm publish v2018.4.23</tspan>

<tspan x="10" y="1946">- update build</tspan>

<tspan x="10" y="1962"></tspan>

<tspan x="10" y="1978">2018-02-17 07:26:50 +0700</tspan>

<tspan x="10" y="1994">[npm publish] - npm publish v2018.2.16</tspan>

<tspan x="10" y="2010">- update build</tspan>

<tspan x="10" y="2026"></tspan>

<tspan x="10" y="2042">2017-12-05 00:29:28 +0700</tspan>

<tspan x="10" y="2058">[npm publish] - npm publish 2017.12.4</tspan>

<tspan x="10" y="2074">- change function setTimeoutOnError signature to function (onError, timeout, error, data)</tspan>

<tspan x="10" y="2090"></tspan>

<tspan x="10" y="2106">2017-11-08 00:51:36 +0800</tspan>

<tspan x="10" y="2122">[npm publish] - npm publish 2017.11.7</tspan>

<tspan x="10" y="2138">- run tests with testRunInit instead of testRunAll</tspan>

<tspan x="10" y="2154">- update build</tspan>

<tspan x="10" y="2170"></tspan>

<tspan x="10" y="2186">2017-09-17 22:59:58 +0700</tspan>

<tspan x="10" y="2202">[npm publish] - npm publish 2017.9.16</tspan>

<tspan x="10" y="2218">- add cli-help doc to README.md</tspan>

<tspan x="10" y="2234"></tspan>

<tspan x="10" y="2250">2017-07-25 14:47:03 +0800</tspan>

<tspan x="10" y="2266">[npm publish] - npm publish 2017.7.24</tspan>

<tspan x="10" y="2282">- update documentation</tspan>

<tspan x="10" y="2298"></tspan>

<tspan x="10" y="2314">2017-05-26 12:05:34 +0800</tspan>

<tspan x="10" y="2330">[npm publish] - npm publish 2017.5.25</tspan>

<tspan x="10" y="2346">- add $not query-operator and 'shuffle' param in function dbTable.prototype.crudGetManyByQuery</tspan>

<tspan x="10" y="2362">- add dbTable.sortDefault property</tspan>

<tspan x="10" y="2378">- deduplicate file assets.db.rollup.js</tspan>

<tspan x="10" y="2394">- do not update _timeModified when importing data</tspan>

<tspan x="10" y="2410">- fix stable-sort bug in v8</tspan>

<tspan x="10" y="2426">- add README section 'internal screen-capture'</tspan>

<tspan x="10" y="2442">- add README section 'quickstart standalone app'</tspan>

<tspan x="10" y="2458">- auto-create README section 'table of contents'</tspan>

<tspan x="10" y="2474">- rename README section 'quickstart web example' -&gt; 'quickstart example.js'</tspan>

<tspan x="10" y="2490"></tspan>

<tspan x="10" y="2506">2017-03-30 21:50:17 +0800</tspan>

<tspan x="10" y="2522">[npm publish] - npm publish 2017.3.29</tspan>

<tspan x="10" y="2538">- change function _DbTable.prototype.crudUpdateOneById to auto-insert missing record</tspan>

<tspan x="10" y="2554">- add function _DbTable.prototype.crudGetOneByRandom</tspan>

<tspan x="10" y="2570"></tspan>

<tspan x="10" y="2586">2017-03-17 05:00:34 +0800</tspan>

<tspan x="10" y="2602">[npm publish]</tspan>

<tspan x="10" y="2618"></tspan>

<tspan x="10" y="2634">2017-03-17 04:45:37 +0800</tspan>

<tspan x="10" y="2650">[npm publish] - npm publish 2017.3.16</tspan>

<tspan x="10" y="2666">- remove build-function shBuildCiTestPre</tspan>

<tspan x="10" y="2682">- rename name api-doc -&gt; apidoc</tspan>

<tspan x="10" y="2698"></tspan>

<tspan x="10" y="2714">2017-02-24 12:14:48 +0800</tspan>

<tspan x="10" y="2730">- npm publish 2017.2.2</tspan>

<tspan x="10" y="2746">- add ttl-cache</tspan>

<tspan x="10" y="2762">- do not auto-uglify js-assets in production</tspan>

<tspan x="10" y="2778">- replace env var npm_package_name with npm_package_nameAlias in istanbul code-coverage</tspan>

<tspan x="10" y="2794">- use async-api's in example.js</tspan>

<tspan x="10" y="2810"></tspan>

<tspan x="10" y="2826">2017-02-18 16:51:25 +0800</tspan>

<tspan x="10" y="2842">- npm publish 2017.2.1</tspan>

<tspan x="10" y="2858">- add file assets.db.rollup.js</tspan>

<tspan x="10" y="2874">- revamp README.md</tspan>

<tspan x="10" y="2890"></tspan>

<tspan x="10" y="2906">2016-12-13 21:52:24 +0800</tspan>

<tspan x="10" y="2922">- npm publish 2016.12.1</tspan>

<tspan x="10" y="2938">- fix persistence-cancel handling-behavior</tspan>

<tspan x="10" y="2954">- rename function clear to crudRemoveAll</tspan>

<tspan x="10" y="2970">- rename function reset to drop</tspan>

<tspan x="10" y="2986">- rename files index.* -&gt; lib.db.*</tspan>

<tspan x="10" y="3002">- rename field _timeModified -&gt; _timeUpdated</tspan>

<tspan x="10" y="3018"></tspan>

<tspan x="10" y="3034">2016-11-21 10:04:55 +0800</tspan>

<tspan x="10" y="3050">- npm publish 2016.10.3</tspan>

<tspan x="10" y="3066">- re-implement persistence</tspan>

</text>
</svg>
