<svg height="718" width="720" xmlns="http://www.w3.org/2000/svg">
<rect height="718" fill="#555" width="720"></rect>
<text fill="#7f7" font-family="Courier New" font-size="12" xml:space="preserve">
<tspan x="10" y="26"></tspan>

<tspan x="10" y="42">\x1b[35m[MODE_BUILD=buildApp]\x1b[0m - 2019-08-21T10:31:35.866Z - npm-testing /home/travis/build\</tspan>
<tspan x="10" y="58">/kaizhu256/node-db-lite</tspan>

<tspan x="10" y="74"></tspan>

<tspan x="10" y="90"></tspan>

<tspan x="10" y="106">buildApp - merged test-report from file /home/travis/build/kaizhu256/node-db-lite/tmp/build/test\</tspan>
<tspan x="10" y="122">-report.json</tspan>

<tspan x="10" y="138">&gt; http-server listening on port 56876</tspan>

<tspan x="10" y="154">db - dropping database ...</tspan>

<tspan x="10" y="170"></tspan>

<tspan x="10" y="186">buildApp - merged test-report from file /home/travis/build/kaizhu256/node-db-lite/tmp/build/test\</tspan>
<tspan x="10" y="202">-report.json</tspan>

<tspan x="10" y="218">jslint - 291ms /home/travis/build/kaizhu256/node-db-lite/README.md</tspan>

<tspan x="10" y="234">jslint - 426ms /home/travis/build/kaizhu256/node-db-lite/lib.db.js</tspan>

<tspan x="10" y="250">jslint - 8ms /home/travis/build/kaizhu256/node-db-lite/npm_scripts.sh</tspan>

<tspan x="10" y="266">jslint - 1ms /home/travis/build/kaizhu256/node-db-lite/package.json</tspan>

<tspan x="10" y="282">jslint - 217ms /home/travis/build/kaizhu256/node-db-lite/test.js</tspan>

<tspan x="10" y="298">http-server listening on port 60109</tspan>

<tspan x="10" y="314">testRunDefault - 10260 ms - testCase pending - testCase_buildApp_default ...</tspan>

<tspan x="10" y="330">testRunDefault - 13233 ms - [node test-case 1 of 1 passed] - testCase_buildApp_default</tspan>

<tspan x="10" y="346"></tspan>

<tspan x="10" y="362">buildApp - merged test-report from file /home/travis/build/kaizhu256/node-db-lite/tmp/build/test\</tspan>
<tspan x="10" y="378">-report.json</tspan>

<tspan x="10" y="394"></tspan>

<tspan x="10" y="410">-------------------------------------------------------</tspan>

<tspan x="10" y="426">| test-report - buildApidoc - node - linux v12.9.0 - 2019-08-21T10:31:30.397Z</tspan>

<tspan x="10" y="442">|   13233 ms            0 failed        1 passed      |</tspan>

<tspan x="10" y="458">-------------------------------------------------------</tspan>

<tspan x="10" y="474">| test-report - npmTest - browser - / - Mozilla/5.0 (X11; Linux x86_64) AppleWebKit/537.36 (KHTM\</tspan>
<tspan x="10" y="490">L, like Gecko) Chrome/61.0.3163.100 Electron/2.0.18 Safari/537.36 - 2019-08-21T10:31:22.496Z</tspan>

<tspan x="10" y="506">|    2007 ms            0 failed       11 passed      |</tspan>

<tspan x="10" y="522">-------------------------------------------------------</tspan>

<tspan x="10" y="538">| test-report - npmTest - node - linux v12.9.0 - 2019-08-21T10:31:19.379Z</tspan>

<tspan x="10" y="554">|    7964 ms            0 failed       17 passed      |</tspan>

<tspan x="10" y="570">-------------------------------------------------------</tspan>

<tspan x="10" y="586"></tspan>

<tspan x="10" y="602">created test-report file /home/travis/build/kaizhu256/node-db-lite/tmp/build/test-report.html</tspan>

<tspan x="10" y="618"></tspan>

<tspan x="10" y="634"></tspan>

<tspan x="10" y="650">buildApp - 0 failed tests</tspan>

<tspan x="10" y="666"></tspan>

<tspan x="10" y="682"></tspan>

<tspan x="10" y="698">\x1b[35m[MODE_BUILD=buildApp]\x1b[0m - 2019-08-21T10:31:44.943Z - EXIT_CODE - 0</tspan>

</text>
</svg>
