<svg height="974" width="720" xmlns="http://www.w3.org/2000/svg">
<rect height="974" fill="#555" width="720"></rect>
<text fill="#7f7" font-family="Courier New" font-size="12" xml:space="preserve">
<tspan x="10" y="26">db-lite (2019.8.20)</tspan>

<tspan x="10" y="42"></tspan>

<tspan x="10" y="58">usage:</tspan>

<tspan x="10" y="74">  lib.db.js  &lt;arg1&gt;  &lt;arg2&gt;  ...</tspan>

<tspan x="10" y="90"></tspan>

<tspan x="10" y="106">example:</tspan>

<tspan x="10" y="122">  lib.db.js  --eval  'console.log("hello world")'</tspan>

<tspan x="10" y="138"></tspan>

<tspan x="10" y="154"># COMMAND --eval</tspan>

<tspan x="10" y="170"># will eval &lt;code&gt;</tspan>

<tspan x="10" y="186">  lib.db.js  --eval|-e  &lt;code&gt;</tspan>

<tspan x="10" y="202"></tspan>

<tspan x="10" y="218"># COMMAND --help</tspan>

<tspan x="10" y="234"># will print help</tspan>

<tspan x="10" y="250">  lib.db.js  --help|-h|help  </tspan>

<tspan x="10" y="266"></tspan>

<tspan x="10" y="282"># COMMAND --interactive</tspan>

<tspan x="10" y="298"># will start interactive-mode</tspan>

<tspan x="10" y="314">  lib.db.js  --interactive|-i  </tspan>

<tspan x="10" y="330"></tspan>

<tspan x="10" y="346"># COMMAND --version</tspan>

<tspan x="10" y="362"># will print version</tspan>

<tspan x="10" y="378">  lib.db.js  --version|-v  </tspan>

<tspan x="10" y="394"></tspan>

<tspan x="10" y="410"># COMMAND dbTableCrudGetManyByQuery</tspan>

<tspan x="10" y="426"># will get from &lt;dbTable&gt; with json &lt;query&gt;, &lt;dbRowList&gt;</tspan>

<tspan x="10" y="442">  lib.db.js  dbTableCrudGetManyByQuery  &lt;dbTable&gt;  &lt;query&gt;</tspan>

<tspan x="10" y="458"></tspan>

<tspan x="10" y="474"># COMMAND dbTableCrudRemoveManyByQuery</tspan>

<tspan x="10" y="490"># will remove from &lt;dbTable&gt; with json &lt;query&gt;, &lt;dbRowList&gt;</tspan>

<tspan x="10" y="506">  lib.db.js  dbTableCrudRemoveManyByQuery  &lt;dbTable&gt;  &lt;query&gt;</tspan>

<tspan x="10" y="522"></tspan>

<tspan x="10" y="538"># COMMAND dbTableCrudSetManyById</tspan>

<tspan x="10" y="554"># will set in &lt;dbTable&gt;, &lt;dbRowList&gt;</tspan>

<tspan x="10" y="570">  lib.db.js  dbTableCrudSetManyById  &lt;dbTable&gt;  &lt;dbRowList&gt;</tspan>

<tspan x="10" y="586"></tspan>

<tspan x="10" y="602"># COMMAND dbTableHeaderDictGet</tspan>

<tspan x="10" y="618"># will get from &lt;dbTable&gt;, &lt;headerDict&gt;</tspan>

<tspan x="10" y="634">  lib.db.js  dbTableHeaderDictGet  &lt;dbTable&gt;</tspan>

<tspan x="10" y="650"></tspan>

<tspan x="10" y="666"># COMMAND dbTableHeaderDictSet</tspan>

<tspan x="10" y="682"># will set in &lt;dbTable&gt;, &lt;headerDict&gt;</tspan>

<tspan x="10" y="698">  lib.db.js  dbTableHeaderDictSet  &lt;dbTable&gt;  &lt;headerDict&gt;</tspan>

<tspan x="10" y="714"></tspan>

<tspan x="10" y="730"># COMMAND dbTableIdIndexCreate</tspan>

<tspan x="10" y="746"># will create in &lt;dbTable&gt;, &lt;idIndex&gt;</tspan>

<tspan x="10" y="762">  lib.db.js  dbTableIdIndexCreate  &lt;dbTable&gt;  &lt;idIndex&gt;</tspan>

<tspan x="10" y="778"></tspan>

<tspan x="10" y="794"># COMMAND dbTableIdIndexRemove</tspan>

<tspan x="10" y="810"># will remove from &lt;dbTable&gt;, &lt;idIndex&gt;</tspan>

<tspan x="10" y="826">  lib.db.js  dbTableIdIndexRemove  &lt;dbTable&gt;  &lt;idIndex&gt;</tspan>

<tspan x="10" y="842"></tspan>

<tspan x="10" y="858"># COMMAND dbTableList</tspan>

<tspan x="10" y="874"># will get from db, &lt;dbTableList&gt;</tspan>

<tspan x="10" y="890">  lib.db.js  dbTableList  </tspan>

<tspan x="10" y="906"></tspan>

<tspan x="10" y="922"># COMMAND dbTableRemove</tspan>

<tspan x="10" y="938"># will remove from db, &lt;dbTable&gt;</tspan>

<tspan x="10" y="954">  lib.db.js  dbTableRemove  &lt;dbTable&gt;</tspan>

</text>
</svg>
